<svg width="1000" height="700" xmlns="http://www.w3.org/2000/svg" font-family="sans-serif">
  <!-- Gemini 2.5 Pro Preview (1m) -->
  <!-- Background -->
  <rect width="100%" height="100%" fill="#ECF0F1" />

  <!-- Title -->
  <text x="500" y="30" font-size="20" text-anchor="middle" fill="#2c3e50">The Default-Filling Gear System</text>

  <!-- Input Hopper -->
  <g id="input-hopper">
    <polygon points="100,50 200,50 175,100 125,100" fill="#BDC3C7"/>
    <rect x="125" y="100" width="50" height="30" fill="#BDC3C7"/>
    <text x="150" y="80" text-anchor="middle" font-size="12" fill="#2c3e50">Sparse</text>
    <text x="150" y="95" text-anchor="middle" font-size="12" fill="#2c3e50">`config.yaml`</text>
    <!-- Data Units -->
    <circle cx="140" cy="120" r="5" fill="#3498DB"/>
    <circle cx="150" cy="125" r="5" fill="#3498DB"/>
    <circle cx="160" cy="120" r="5" fill="#3498DB"/>
  </g>

  <!-- Central JSON Schema Processor -->
  <g id="central-processor">
    <circle cx="150" cy="200" r="40" fill="#7F8C8D" />
    <text x="150" y="200" text-anchor="middle" dominant-baseline="central" font-size="10" fill="white">JSON Schema</text>
    <text x="150" y="212" text-anchor="middle" dominant-baseline="central" font-size="10" fill="white">Processor</text>
    <!-- Gear teeth (simplified) -->
    <path d="M150,160 L145,155 L155,155 Z M150,240 L145,245 L155,245 Z M110,200 L105,195 L105,205 Z M190,200 L195,195 L195,205 Z
             M178.28,178.28 L173.28,173.28 L183.28,173.28 Z M121.72,221.72 L116.72,226.72 L126.72,226.72 Z
             M121.72,178.28 L116.72,173.28 L126.72,173.28 Z M178.28,221.72 L173.28,226.72 L183.28,226.72 Z" fill="#7F8C8D"/>
  </g>

  <!-- Pipes from Central Processor to Trains -->
  <line x1="150" y1="200" x2="250" y2="100" stroke="#95A5A6" stroke-width="10"/> <!-- To Ruby -->
  <line x1="150" y1="200" x2="250" y2="250" stroke="#95A5A6" stroke-width="10"/> <!-- To Node.js -->
  <line x1="150" y1="200" x2="250" y2="400" stroke="#95A5A6" stroke-width="10"/> <!-- To Python -->


  <!-- Ruby (json_schemer) Train -->
  <g id="ruby-train" transform="translate(250, 50)">
    <text x="0" y="0" font-size="14" fill="#2c3e50" font-weight="bold">Ruby (`json_schemer`)</text>
    <!-- Top-Level Defaults Gear & Container -->
    <circle cx="50" cy="50" r="20" fill="#7F8C8D"/>
    <text x="50" y="45" text-anchor="middle" font-size="8">Top-Level</text>
    <text x="50" y="55" text-anchor="middle" font-size="8">Defaults</text>
    <rect x="30" y="80" width="40" height="30" fill="#ffffff" stroke="#95A5A6" />
    <rect x="30" y="95" width="40" height="15" fill="#3498DB" /> <!-- Filled part -->

    <!-- Connection -->
    <line x1="70" y1="50" x2="100" y2="50" stroke="#95A5A6" stroke-width="5"/>

    <!-- Process site Object Gear (JAMMED) -->
    <circle cx="120" cy="50" r="20" fill="#7F8C8D"/>
    <text x="120" y="45" text-anchor="middle" font-size="8">Process `site`</text>
    <text x="120" y="55" text-anchor="middle" font-size="8">Object</text>
    <rect x="105" y="20" width="30" height="15" fill="#E74C3C"/>
    <text x="120" y="30" text-anchor="middle" font-size="7" fill="white">JAMMED</text>
    <text x="120" y="80" text-anchor="middle" font-size="9" fill="#E74C3C" font-weight="bold">`site` MISSING</text>
    <text x="120" y="90" text-anchor="middle" font-size="9" fill="#E74C3C" font-weight="bold">`REQUIRED` FIELDS</text>

    <!-- Connection (stationary) -->
    <line x1="140" y1="50" x2="170" y2="50" stroke="#95A5A6" stroke-width="5"/>

    <!-- site.host Default Gear & Container (Empty) -->
    <circle cx="190" cy="50" r="20" fill="#95A5A6"/> <!-- Stationary color -->
    <text x="190" y="45" text-anchor="middle" font-size="8">`site.host`</text>
    <text x="190" y="55" text-anchor="middle" font-size="8">Default</text>
    <rect x="170" y="80" width="40" height="30" fill="#ffffff" stroke="#95A5A6" />

    <!-- site.authentication Default Gear & Container (Empty) -->
    <circle cx="260" cy="50" r="20" fill="#95A5A6"/> <!-- Stationary color -->
    <text x="260" y="45" text-anchor="middle" font-size="8">`site.auth`</text>
    <text x="260" y="55" text-anchor="middle" font-size="8">Default</text>
    <rect x="240" y="80" width="40" height="30" fill="#ffffff" stroke="#95A5A6" />

    <!-- Output Container (Partially Filled) -->
    <rect x="350" y="30" width="60" height="100" fill="#ffffff" stroke="#7F8C8D" stroke-width="2"/>
    <rect x="350" y="90" width="60" height="40" fill="#3498DB" />
    <text x="380" y="70" text-anchor="middle" font-size="10">Resulting</text>
    <text x="380" y="80" text-anchor="middle" font-size="10">Config</text>
  </g>

  <!-- Node.js (ajv) Train -->
  <g id="nodejs-train" transform="translate(250, 200)">
    <text x="0" y="0" font-size="14" fill="#2c3e50" font-weight="bold">Node.js (`ajv`)</text>
     <!-- Top-Level Defaults Gear & Container -->
    <circle cx="50" cy="50" r="20" fill="#7F8C8D"/>
    <text x="50" y="45" text-anchor="middle" font-size="8">Top-Level</text>
    <text x="50" y="55" text-anchor="middle" font-size="8">Defaults</text>
    <rect x="30" y="80" width="40" height="30" fill="#ffffff" stroke="#95A5A6" />
    <rect x="30" y="80" width="40" height="30" fill="#3498DB" /> <!-- Fully Filled -->

    <line x1="70" y1="50" x2="100" y2="50" stroke="#95A5A6" stroke-width="5"/>

    <!-- Process site Object Gear & Container -->
    <circle cx="120" cy="50" r="20" fill="#7F8C8D"/>
    <text x="120" y="45" text-anchor="middle" font-size="8">Process `site`</text>
    <text x="120" y="55" text-anchor="middle" font-size="8">Object</text>
    <rect x="100" y="80" width="40" height="30" fill="#ffffff" stroke="#95A5A6" />
    <rect x="100" y="80" width="40" height="30" fill="#3498DB" /> <!-- Fully Filled -->

    <line x1="140" y1="50" x2="170" y2="50" stroke="#95A5A6" stroke-width="5"/>

    <!-- site.host Default Gear & Container -->
    <circle cx="190" cy="50" r="20" fill="#7F8C8D"/>
    <text x="190" y="45" text-anchor="middle" font-size="8">`site.host`</text>
    <text x="190" y="55" text-anchor="middle" font-size="8">Default</text>
    <rect x="170" y="80" width="40" height="30" fill="#ffffff" stroke="#95A5A6" />
    <rect x="170" y="80" width="40" height="30" fill="#3498DB" /> <!-- Fully Filled -->

    <line x1="210" y1="50" x2="240" y2="50" stroke="#95A5A6" stroke-width="5"/>

    <!-- site.authentication Default Gear & Container -->
    <circle cx="260" cy="50" r="20" fill="#7F8C8D"/>
    <text x="260" y="45" text-anchor="middle" font-size="8">`site.auth`</text>
    <text x="260" y="55" text-anchor="middle" font-size="8">Default</text>
    <rect x="240" y="80" width="40" height="30" fill="#ffffff" stroke="#95A5A6" />
    <rect x="240" y="80" width="40" height="30" fill="#3498DB" /> <!-- Fully Filled -->

    <!-- Validation Checkpoint -->
    <rect x="300" y="35" width="80" height="40" fill="#BDC3C7" rx="5"/>
    <text x="340" y="50" text-anchor="middle" font-size="9">Validation</text>
    <text x="340" y="60" text-anchor="middle" font-size="9">Checkpoint</text>
    <circle cx="370" cy="25" r="7" fill="#F1C40F"/> <!-- Warning LED -->
    <text x="340" y="95" text-anchor="middle" font-size="9" fill="#E67E22">`required` issues</text>
    <text x="340" y="105" text-anchor="middle" font-size="9" fill="#E67E22">detected</text>


    <!-- Output Container (Completely Filled) -->
    <rect x="420" y="30" width="60" height="100" fill="#ffffff" stroke="#7F8C8D" stroke-width="2"/>
    <rect x="420" y="30" width="60" height="100" fill="#3498DB" />
    <text x="450" y="70" text-anchor="middle" font-size="10">Resulting</text>
    <text x="450" y="80" text-anchor="middle" font-size="10">Config</text>
  </g>

  <!-- Python (jsonschema + custom) Train -->
  <g id="python-train" transform="translate(250, 350)">
    <text x="0" y="0" font-size="14" fill="#2c3e50" font-weight="bold">Python (`jsonschema` + custom)</text>
    <!-- Top-Level Defaults Gear & Container -->
    <circle cx="50" cy="50" r="20" fill="#7F8C8D"/>
    <text x="50" y="45" text-anchor="middle" font-size="8">Top-Level</text>
    <text x="50" y="55" text-anchor="middle" font-size="8">Defaults</text>
    <rect x="30" y="80" width="40" height="30" fill="#ffffff" stroke="#95A5A6" />
    <rect x="30" y="80" width="40" height="30" fill="#3498DB" /> <!-- Fully Filled -->

    <line x1="70" y1="50" x2="100" y2="50" stroke="#95A5A6" stroke-width="5"/>

    <!-- Process site Object Gear & Container -->
    <circle cx="120" cy="50" r="20" fill="#7F8C8D"/>
    <text x="120" y="45" text-anchor="middle" font-size="8">Process `site`</text>
    <text x="120" y="55" text-anchor="middle" font-size="8">Object</text>
    <rect x="100" y="80" width="40" height="30" fill="#ffffff" stroke="#95A5A6" />
    <rect x="100" y="80" width="40" height="30" fill="#3498DB" /> <!-- Fully Filled -->

    <line x1="140" y1="50" x2="170" y2="50" stroke="#95A5A6" stroke-width="5"/>

    <!-- site.host Default Gear & Container -->
    <circle cx="190" cy="50" r="20" fill="#7F8C8D"/>
    <text x="190" y="45" text-anchor="middle" font-size="8">`site.host`</text>
    <text x="190" y="55" text-anchor="middle" font-size="8">Default</text>
    <rect x="170" y="80" width="40" height="30" fill="#ffffff" stroke="#95A5A6" />
    <rect x="170" y="80" width="40" height="30" fill="#3498DB" /> <!-- Fully Filled -->

    <line x1="210" y1="50" x2="240" y2="50" stroke="#95A5A6" stroke-width="5"/>

    <!-- site.authentication Default Gear & Container -->
    <circle cx="260" cy="50" r="20" fill="#7F8C8D"/>
    <text x="260" y="45" text-anchor="middle" font-size="8">`site.auth`</text>
    <text x="260" y="55" text-anchor="middle" font-size="8">Default</text>
    <rect x="240" y="80" width="40" height="30" fill="#ffffff" stroke="#95A5A6" />
    <rect x="240" y="80" width="40" height="30" fill="#3498DB" /> <!-- Fully Filled -->

    <!-- Custom Oil Can/Helper Cog -->
    <g transform="translate(15, 20) rotate(-15)">
      <rect x="0" y="0" width="10" height="15" fill="#5D6D7E"/>
      <polygon points="0,0 10,0 12, -5, -2, -5" fill="#5D6D7E"/>
      <text x="5" y="22" font-size="7" text-anchor="middle">Custom</text>
    </g>


    <!-- Validation Checkpoint -->
    <rect x="300" y="35" width="80" height="40" fill="#BDC3C7" rx="5"/>
    <text x="340" y="50" text-anchor="middle" font-size="9">Validation</text>
    <text x="340" y="60" text-anchor="middle" font-size="9">Checkpoint</text>
    <circle cx="370" cy="25" r="7" fill="#F1C40F"/> <!-- Warning LED -->
    <text x="340" y="95" text-anchor="middle" font-size="9" fill="#E67E22">`required` issues</text>
    <text x="340" y="105" text-anchor="middle" font-size="9" fill="#E67E22">detected</text>

    <!-- Output Container (Completely Filled) -->
    <rect x="420" y="30" width="60" height="100" fill="#ffffff" stroke="#7F8C8D" stroke-width="2"/>
    <rect x="420" y="30" width="60" height="100" fill="#3498DB" />
    <text x="450" y="70" text-anchor="middle" font-size="10">Resulting</text>
    <text x="450" y="80" text-anchor="middle" font-size="10">Config</text>
  </g>

  <!-- Overall Message/Legend (Optional) -->
  <text x="500" y="650" font-size="12" text-anchor="middle" fill="#2c3e50">
    Visualizes how default application can be interrupted by `required` validation failures in `json_schemer`,
  </text>
  <text x="500" y="665" font-size="12" text-anchor="middle" fill="#2c3e50">
    while other systems might complete default filling before flagging those same validation issues.
  </text>

</svg>
