<svg width="800" height="700" viewBox="0 0 800 700" xmlns="http://www.w3.org/2000/svg" style="background-color: #F8F9F9; font-family: 'Arial', sans-serif;">
  <!-- Gemini 2.5 Pro Preview (1m) -->

  <!-- Maze Walls -->
  <defs>
    <style>
      .maze-wall { fill: #CCD1D9; stroke: #AAB0B7; stroke-width: 2; }
      .text-label { font-size: 14px; fill: #333333; }
      .path-label { font-size: 12px; font-weight: bold; }
      .item-label { font-size: 10px; fill: #555; }

      .ruby-path { stroke: #E74C3C; stroke-width: 4; fill: none; stroke-dasharray: 8, 4; }
      .node-path { stroke: #2ECC71; stroke-width: 4; fill: none; stroke-dasharray: 8, 4; }
      .python-path { stroke: #3498DB; stroke-width: 4; fill: none; stroke-dasharray: 8, 4; }

      .default-collected { fill: #FFD700; stroke: #DAA520; }
      .default-uncollected { fill: #BDC3C7; stroke: #AAB0B7; }
    </style>
    <!-- Optional Grid -->
    <pattern id="grid" width="20" height="20" patternUnits="userSpaceOnUse">
      <path d="M 20 0 L 0 0 0 20" fill="none" stroke="#E0E0E0" stroke-width="0.5"/>
    </pattern>
  </defs>

  <rect width="100%" height="100%" fill="url(#grid)" />

  <!-- Maze Structure -->
  <!-- Outer Walls -->
  <rect class="maze-wall" x="50" y="50" width="700" height="600" fill-opacity="0" stroke-width="4"/>

  <!-- Inner Walls -->
  <!-- Top section -->
  <rect class="maze-wall" x="50" y="150" width="300" height="10"/>
  <rect class="maze-wall" x="150" y="150" width="10" height="100"/>
  <rect class="maze-wall" x="350" y="50" width="10" height="150"/>

  <!-- Middle section / Ruby block area -->
  <rect class="maze-wall" x="250" y="250" width="10" height="150"/> <!-- Wall before Ruby block -->
  <rect class="maze-wall" x="400" y="200" width="150" height="10"/>
  <rect class="maze-wall" x="400" y="200" width="10" height="100"/>

  <!-- Nested defaults area -->
  <rect class="maze-wall" x="50" y="400" width="200" height="10"/>
  <rect class="maze-wall" x="300" y="350" width="10" height="150"/>
  <rect class="maze-wall" x="450" y="350" width="10" height="150"/>
  <rect class="maze-wall" x="300" y="500" width="160" height="10"/>

  <!-- Path to exit -->
  <rect class="maze-wall" x="50" y="550" width="300" height="10"/>
  <rect class="maze-wall" x="550" y="450" width="10" height="150"/>
  <rect class="maze-wall" x="400" y_MISSING="550" width="10" height="100"/>

  <!-- Start & End Labels -->
  <text x="60" y="40" class="text-label" style="font-size: 16px; font-weight: bold;">Entrance: Sparse `config.yaml`</text>
  <text x="580" y="640" class="text-label" style="font-size: 16px; font-weight: bold;">Exit: Fully Defaulted Config</text>

  <!-- Default Items -->
  <!-- Simple Defaults -->
  <g id="sd1">
    <circle cx="100" cy="200" r="12" class="default-uncollected" stroke-width="1.5"/>
    <text x="92" y="205" fill="#333" font-size="10">S1</text>
    <text x="80" y="225" class="item-label">Simple</text>
  </g>
  <g id="sd2">
    <circle cx="200" cy="300" r="12" class="default-uncollected" stroke-width="1.5"/>
    <text x="192" y="305" fill="#333" font-size="10">S2</text>
    <text x="180" y="325" class="item-label">Simple</text>
  </g>

  <!-- Nested Defaults -->
  <g id="nd1">
    <rect x="365" y="405" width="24" height="24" class="default-uncollected" rx="3" stroke-width="1.5"/>
    <text x="370" y="420" fill="#333" font-size="10">N1</text>
    <text x="355" y="445" class="item-label">Nested</text>
  </g>
  <g id="nd2">
    <rect x="365" y="275" width="24" height="24" class="default-uncollected" rx="3" stroke-width="1.5"/>
    <text x="370" y="290" fill="#333" font-size="10">N2</text>
    <text x="355" y="315" class="item-label">Nested</text>
  </g>

  <!-- Paths -->
  <!-- Ruby Path -->
  <path class="ruby-path" d="M 75,60 L 75,190 Q 75,200 100,200 Q 125,200 125,220 L 125,240 L 200,240 L 200,280 Q 200,300 220,300 L 300,300" />
  <g transform="translate(100 200)"> <circle r="12" class="default-collected"/> <text x="-8" y="5" fill="#FFF" font-size="10">S1</text> </g> <!-- Ruby collects SD1 -->
  <!-- Ruby Wall -->
  <rect x="300" y="270" width="60" height="60" fill="#C0392B" stroke="#A03020" stroke-width="2"/>
  <text x="305" y="300" style="font-size:10px; fill:white; font-weight:bold;">REQUIRED</text>
  <text x="315" y="315" style="font-size:10px; fill:white; font-weight:bold;">ERROR</text>
  <text x="250" y="290" class="path-label" fill="#E74C3C">Ruby (json_schemer)</text>

  <!-- Node.js Path -->
  <path class="node-path" d="M 85,60 L 85,190 Q 85,200 100,200 Q 115,200 115,220 L 115,270 L 190,270 Q 200,270 200,280 Q 200,290 210,300 L 210,370 L 375,370 L 375,395 Q 375,415 390,415 Q 405,415 405,435 L 405,295 Q 405,280 390,275 Q 375,270 375,260 L 375,230 L 500,230 L 500,580 L 700,580 L 700,610" />
  <g transform="translate(100 200)"> <circle r="12" class="default-collected"/> <text x="-8" y="5" fill="#333" font-size="10">S1</text> </g>
  <g transform="translate(200 300)"> <circle r="12" class="default-collected"/> <text x="-8" y="5" fill="#333" font-size="10">S2</text> </g>
  <g transform="translate(377 417)"> <rect x="-12" y="-12" width="24" height="24" class="default-collected" rx="3"/> <text x="-7" y="5" fill="#333" font-size="10">N1</text> </g>
  <g transform="translate(377 287)"> <rect x="-12" y="-12" width="24" height="24" class="default-collected" rx="3"/> <text x="-7" y="5" fill="#333" font-size="10">N2</text> </g>
  <text x="510" y="210" class="path-label" fill="#2ECC71">Node.js (ajv)</text>


  <!-- Python Path -->
  <path class="python-path" d="M 95,60 L 95,190 Q 95,200 110,200 Q 125,200 125,230 L 125,280 L 180,280 Q 200,280 200,295 Q 200,310 220,310 L 220,380 L 365,380 L 365,405 Q 365,415 385,415 Q 405,415 405,445 L 405,305 Q 405,285 385,275 Q 365,265 365,250 L 365,240 L 520,240 L 520,590 L 710,590 L 710,610" />
  <!-- Python collected items are covered by Node's, effectively -->
  <text x="530" y="260" class="path-label" fill="#3498DB">Python (jsonschema + custom)</text>
  <!-- Python Toolkit Icon -->
  <g transform="translate(500 270)">
    <rect x="0" y="0" width="20" height="20" fill="#F1C40F" rx="2"/>
    <path d="M 5 5 L 15 5 M 5 10 L 15 10 M 5 15 L 10 15" stroke="#333" stroke-width="1.5"/>
  </g>

  <!-- Warning Signs near Exit -->
  <g transform="translate(600 550)">
    <polygon points="0,25 25,0 50,25" fill="#F39C12" stroke="black" stroke-width="1.5"/>
    <text x="22" y="20" font-size="20" fill="black" text-anchor="middle">!</text>
    <text x="25" y="40" class="item-label" text-anchor="middle">`required` issues noted</text>
  </g>
   <g transform="translate(660 550)"> <!-- Second warning for Python, slightly offset -->
    <polygon points="0,25 25,0 50,25" fill="#F39C12" stroke="black" stroke-width="1.5"/>
    <text x="22" y="20" font-size="20" fill="black" text-anchor="middle">!</text>
  </g>

  <!-- Byline -->
  <text x="790" y="690" font-family="Arial, sans-serif" font-size="12" font-style="italic" text-anchor="end" fill="#888888">
    Generated by Gemini 2.5 Pro Preview
  </text>
</svg>
